<?xml version="1.0" encoding="iso-8859-1"?>
<!-- Generator: Adobe Illustrator 19.0.0, SVG Export Plug-In . SVG Version: 6.00 Build 0)  -->
<svg version="1.1" id="Capa_1" xmlns="http://www.w3.org/2000/svg" xmlns:xlink="http://www.w3.org/1999/xlink" x="0px" y="0px"
	 viewBox="0 0 512 512" style="enable-background:new 0 0 512 512;" xml:space="preserve">
<g>
	<circle style="fill:#D1D4D1;" cx="256" cy="256" r="256"/>
	<path style="fill:#46B29D;" d="M150.633,249.01c27.269,46.412,65.945,85.087,112.357,112.357l49-49
		c6.895-6.895,18.073-6.895,24.968,0l62.42,62.42c3.311,3.311,5.171,7.802,5.171,12.484c0,4.682-1.86,9.173-5.171,12.484
		l-43.658,43.658c-13.988,14.121-34.74,19.152-53.642,13.006c-4.32-1.436-8.61-2.95-12.872-4.543
		C183.183,412.435,99.565,328.817,60.123,222.794c-1.591-4.26-3.105-8.551-4.542-12.872c-6.146-18.902-1.115-39.654,13.006-53.642
		l43.658-43.658c3.311-3.311,7.802-5.171,12.484-5.171s9.173,1.86,12.484,5.171l62.42,62.421c3.311,3.311,5.171,7.802,5.171,12.484
		s-1.86,9.173-5.171,12.484L150.633,249.01z"/>
	<path style="fill:#24AE5F;" d="M512,61.793v185.379c-0.029,9.739-7.916,17.627-17.655,17.655h-27.542l-69.561,61.793v-61.793H256
		c-9.739-0.029-17.627-7.916-17.655-17.655V61.793c0.028-9.739,7.916-17.627,17.655-17.655h238.345
		C504.084,44.166,511.972,52.054,512,61.793z"/>
	<g>
		<circle style="fill:#E6E7E8;" cx="295.724" cy="154.483" r="22.069"/>
		<circle style="fill:#E6E7E8;" cx="375.172" cy="154.483" r="22.069"/>
		<circle style="fill:#E6E7E8;" cx="454.621" cy="154.483" r="22.069"/>
	</g>
	<g>
		<path style="fill:#14A085;" d="M199.592,200.033l-31.161,31.161l-87.393-87.393l31.25-31.161
			c3.298-3.306,7.777-5.164,12.447-5.164s9.148,1.858,12.447,5.164l62.411,62.411c3.346,3.295,5.23,7.795,5.23,12.491
			S202.938,196.738,199.592,200.033z"/>
		<path style="fill:#14A085;" d="M399.36,399.713l-31.161,31.25l-87.393-87.393l31.161-31.161c3.295-3.346,7.795-5.231,12.491-5.231
			s9.196,1.884,12.491,5.231l62.411,62.411c3.306,3.298,5.164,7.777,5.164,12.447S402.666,396.415,399.36,399.713z"/>
	</g>
</g>
<g>
</g>
<g>
</g>
<g>
</g>
<g>
</g>
<g>
</g>
<g>
</g>
<g>
</g>
<g>
</g>
<g>
</g>
<g>
</g>
<g>
</g>
<g>
</g>
<g>
</g>
<g>
</g>
<g>
</g>
</svg>
